<?xml version="1.0" encoding="utf-8"?>
<!-- Uploaded to: SVG Repo, www.svgrepo.com, Generator: SVG Repo Mixer Tools -->
<svg width="24px" height="24px" viewBox="0 0 1024 1024" class="icon"  version="1.1" xmlns="http://www.w3.org/2000/svg"><path d="M822.4 842.9c0 61.8-55.2 111.9-123.1 111.9H329.8c-68 0-123.1-50.1-123.1-112.1V171.2c0-61.9 55.2-112.1 123.1-112.1h369.5c68 0 123.1 50.3 123.1 111.9v671.9z" fill="#5E676F" /><path d="M766.4 758.9V171.1c0-29.5-29-55.9-67.2-55.9H329.8c-38.2 0-67.2 26.4-67.2 56.1V759l503.8-0.1z" fill="#FFFFFF" /><path d="M402.6 417.3V563c0 31.1 20 55.9 44.8 55.9h134.4c24.9 0 44.8-25 44.8-55.9V417.3l7.2 4c6.8 3.8 15.3 1.3 19-5.4 3.8-6.8 1.3-15.3-5.4-19l-126-70-6.8-3.8-6.8 3.8-126 70c-6.8 3.8-9.2 12.3-5.4 19 3.8 6.8 12.3 9.2 19 5.4l7.2-4z" fill="#5E676F" /><path d="M766.5 786.9V843c0 29.6-29 55.9-67.2 55.9H329.9c-38.2 0-67.2-26.3-67.2-56.1v-55.9h503.8z" fill="#FFFFFF" /><path d="M514.5 870.9c-15.5 0-28-12.5-28-28s12.5-28 28-28 28 12.5 28 28-12.5 28-28 28z" fill="#5E676F" /><path d="M598.5 401.7V563c0 16.7-9 27.9-16.8 27.9H447.3c-7.8 0-16.8-11.2-16.8-27.9V401.7l90.8-50.4h-13.6l90.8 50.4z" fill="#FFFFFF" /></svg>
